<svg xmlns="http://www.w3.org/2000/svg" width="115" height="40.71"><path d="M28.72 28.4l4-2.39 4-2.53-8-5.09v10zM9.85 17.23l1.84 1.28 6 3.81v-10l-7.84 4.91zm19 23.31l7.88-5.09-7.88-4.76v9.85zm-9.16-29.21l5.81 3.54 2.07 1.22V6.24l-7.88 5.09zm-.66 11l7.88-5.25L23 14.74l-4-2.43v10zm8.53 8.37l-8 5.09 8 4.92v-10zm-8-7.39l8 5.09v-10l-8 4.92zM19 34.47l7.88-4.92L19 24.62v9.85zM19 10l8-5.09L19 0v10zm-9.81 6.09l8-5.09-8-4.92v10zm20.18 13.3l8 5.09v-10l-8 4.93zm9.19 5.09l8-5.09-8-4.93v10zM0 11.33l8 4.76V6.24l-8 5.09zm9.85-6.24l8 4.92V0l-8 5.09zm28.01 8.21l1.53-.14a3.36 3.36 0 00.51 1.51 2.76 2.76 0 001.23 1A4.67 4.67 0 0043 16a4.53 4.53 0 001.64-.27 2.3 2.3 0 001.08-.73 1.77 1.77 0 00.35-1.05 1.58 1.58 0 00-.34-1 2.46 2.46 0 00-1.1-.72 21.58 21.58 0 00-2.19-.6 11.24 11.24 0 01-2.37-.77 3.34 3.34 0 01-1.31-1.14 2.81 2.81 0 01-.43-1.53 3.12 3.12 0 01.53-1.73 3.27 3.27 0 011.54-1.27 5.88 5.88 0 012.25-.42 6.13 6.13 0 012.41.44 3.47 3.47 0 011.6 1.29 3.74 3.74 0 01.6 1.93l-1.56.12a2.52 2.52 0 00-.85-1.76 3.29 3.29 0 00-2.14-.59 3.44 3.44 0 00-2.15.54A1.62 1.62 0 0039.89 8a1.39 1.39 0 00.48 1.09 6.45 6.45 0 002.45.87 16.36 16.36 0 012.72.78A3.74 3.74 0 0147.12 12a3.05 3.05 0 01.51 1.75 3.33 3.33 0 01-.56 1.84A3.71 3.71 0 0145.46 17a5.61 5.61 0 01-2.36.48 7 7 0 01-2.8-.48 3.91 3.91 0 01-1.77-1.46 4.13 4.13 0 01-.67-2.21zm14.66 7.37l-.17-1.41a3.39 3.39 0 00.86.13 1.66 1.66 0 00.8-.17 1.34 1.34 0 00.49-.47 7 7 0 00.5-1.12l.13-.37-3.37-8.9h1.62l1.85 5.14c.24.65.45 1.34.64 2.06a20.69 20.69 0 01.62-2l1.9-5.18h1.51l-3.38 9a18 18 0 01-.85 2 3 3 0 01-.92 1.09 2.19 2.19 0 01-1.24.35 3 3 0 01-1-.18zm13.3-3.42h-1.4V5h1.5v4.35a3 3 0 012.43-1.2 3.74 3.74 0 011.55.33 3.21 3.21 0 011.21.93 4.5 4.5 0 01.74 1.45 5.93 5.93 0 01.27 1.81A5.08 5.08 0 0171 16.2a3.53 3.53 0 01-2.71 1.25 2.83 2.83 0 01-2.47-1.31v1.11zm0-4.51a4.62 4.62 0 00.41 2.26 2.15 2.15 0 003.63.31 3.88 3.88 0 00.72-2.56 4 4 0 00-.69-2.57 2.11 2.11 0 00-1.67-.83 2.17 2.17 0 00-1.71.86 3.77 3.77 0 00-.72 2.48zm16.95 1.64l1.56.19A3.8 3.8 0 0183 16.69a4.12 4.12 0 01-2.54.75 4.06 4.06 0 01-3.09-1.2 4.69 4.69 0 01-1.14-3.37 4.92 4.92 0 011.11-3.47 3.91 3.91 0 013-1.24 3.79 3.79 0 012.91 1.21 4.82 4.82 0 011.13 3.41v.4h-6.64a3.39 3.39 0 00.83 2.24 2.46 2.46 0 001.85.78 2.29 2.29 0 001.41-.44 2.87 2.87 0 00.93-1.39zm-4.94-2.44h5a3 3 0 00-.57-1.68 2.31 2.31 0 00-1.86-.87 2.39 2.39 0 00-1.75.69 2.75 2.75 0 00-.78 1.86zm11.26 5.31V8.36h1.36V9.7a3.65 3.65 0 011-1.24 1.67 1.67 0 011-.3 2.94 2.94 0 011.55.49L93.4 10a2.12 2.12 0 00-1.1-.33 1.44 1.44 0 00-.89.3 1.6 1.6 0 00-.56.83 5.82 5.82 0 00-.25 1.76v4.65zm8.83 0V8.36h1.36V9.7a3.65 3.65 0 011-1.24 1.67 1.67 0 011-.3 3 3 0 011.55.49l-.52 1.4a2.12 2.12 0 00-1.1-.33 1.44 1.44 0 00-.89.3 1.61 1.61 0 00-.56.83 5.82 5.82 0 00-.25 1.76v4.65zm9.72 3.42l-.17-1.41a3.4 3.4 0 00.86.13 1.65 1.65 0 00.8-.17 1.33 1.33 0 00.49-.47 6.73 6.73 0 00.46-1.12l.14-.37-3.37-8.9h1.62l1.85 5.14c.24.65.45 1.34.64 2.06q.26-1 .62-2l1.9-5.18H115l-3.38 9a18 18 0 01-.84 2 3 3 0 01-.92 1.09 2.2 2.2 0 01-1.24.35 3 3 0 01-1-.18z"/></svg>